<svg aria-hidden="true" style="position: absolute; width: 0; height: 0; overflow: hidden;" version="1.1" xmlns="http://www.w3.org/2000/svg" xmlns:xlink="http://www.w3.org/1999/xlink">
<defs>
<symbol id="icon-burger" viewBox="0 0 32 32">
<path stroke="#0C0C0C" stroke-linejoin="round" stroke-linecap="round" stroke-miterlimit="4" stroke-width="2.4" d="M4.001 11.336h24.005M4.001 20.671h24.005"></path>
</symbol>
<symbol id="icon-x" viewBox="0 0 32 32">
<path stroke="#FBFBFB" stroke-linejoin="round" stroke-linecap="round" stroke-miterlimit="4" stroke-width="2.4" d="M24.005 8.002l-16.003 16.003M8.002 8.002l16.003 16.003"></path>
</symbol>
<symbol id="icon-youtube" viewBox="0 0 32 32">
<path d="M24.245 6.001c-1.36-0.080-4.161-0.16-8.402-0.16h-0.56c-4.081 0-6.801 0.080-8.162 0.24-1.84 0.16-3.121 0.64-3.841 1.28-0.64 0.56-1.12 1.6-1.28 2.961-0.080 0.88-0.16 2.721-0.16 5.521v0.4c0 2.641 0.080 4.481 0.24 5.361 0.24 1.28 0.64 2.241 1.44 2.801 0.8 0.64 2.16 1.040 4.081 1.2 1.36 0.080 4.161 0.16 8.402 0.16h0.56c4.081 0 6.801-0.080 8.162-0.24 1.84-0.16 3.121-0.64 3.841-1.28 0.64-0.56 1.12-1.6 1.28-2.961 0.080-0.88 0.16-2.721 0.16-5.521v-0.4c0-2.641-0.080-4.481-0.24-5.361-0.24-1.28-0.64-2.24-1.44-2.801-0.8-0.64-2.16-1.040-4.081-1.2zM21.125 15.843l-8.802 5.281v-10.562l8.802 5.281z"></path>
</symbol>
<symbol id="icon-instagram" viewBox="0 0 32 32">
<path d="M28.723 10.758c-0.016-1.134-0.233-2.212-0.617-3.208l0.021 0.063c-0.681-1.722-2.021-3.060-3.7-3.723l-0.044-0.015c-0.921-0.356-1.986-0.572-3.098-0.595l-0.010-0c-1.367-0.062-1.799-0.078-5.272-0.078s-3.918 0-5.275 0.078c-1.063 0.022-2.112 0.224-3.108 0.595-1.723 0.679-3.062 2.016-3.728 3.694l-0.015 0.044c-0.357 0.919-0.574 1.982-0.595 3.092l-0 0.009c-0.062 1.367-0.082 1.8-0.082 5.265 0 3.468 0 3.911 0.080 5.268 0.021 1.061 0.221 2.109 0.595 3.105 0.682 1.721 2.022 3.057 3.7 3.72l0.044 0.015c0.918 0.37 1.98 0.602 3.092 0.64l0.016 0c1.368 0.058 1.802 0.078 5.275 0.078s3.918 0 5.275-0.080c1.123-0.022 2.188-0.238 3.174-0.615l-0.064 0.022c1.723-0.68 3.061-2.017 3.728-3.694l0.016-0.044c0.357-0.92 0.573-1.984 0.595-3.095l0-0.009c0.061-1.365 0.080-1.799 0.080-5.265-0.003-3.468-0.003-3.908-0.083-5.265zM15.994 22.536c-0.002 0-0.005 0-0.008 0-3.625 0-6.564-2.937-6.566-6.561v-0c0-3.626 2.943-6.563 6.574-6.563 0.001 0 0.003 0 0.005 0 3.625 0 6.564 2.937 6.568 6.561v0c0 3.626-2.945 6.563-6.573 6.563zM22.827 10.698c-0.845 0-1.53-0.685-1.53-1.53s0.685-1.53 1.53-1.53v0c0.845 0 1.53 0.685 1.53 1.53s-0.685 1.53-1.53 1.53v0z"></path>
<path d="M15.995 19.98c2.212 0 4.005-1.793 4.005-4.005s-1.793-4.005-4.005-4.005v0c-2.212 0-4.005 1.793-4.005 4.005s1.793 4.005 4.005 4.005v0z"></path>
</symbol>
<symbol id="icon-facebook" viewBox="0 0 32 32">
<path d="M19.524 4.641h0.96v3.601h-1.2c-0.48 0-0.96 0-1.2 0.24s-0.24 0.48-0.24 1.040v1.28h2.641v3.041h-2.641v13.203h-4.081v-13.283h-2.16v-3.041h2.16v-1.040c0-1.76 0.24-3.041 0.72-3.601 0.72-1.040 2.16-1.52 4.321-1.52 0.24 0.080 0.48 0.080 0.72 0.080z"></path>
</symbol>
<symbol id="icon-footer-line" viewBox="0 0 4464 32" preserveAspectRatio="xMinYMid slice">
<path fill="none" stroke="#fbfbfb" style="stroke: var(--color1, #fbfbfb)" stroke-linejoin="miter" stroke-linecap="butt" stroke-miterlimit="4" stroke-width="16" d="M0 16h4464"></path>
</symbol>
</defs>
</svg>
